<svg width="799" height="391" viewBox="0 0 799 391" fill="none" xmlns="http://www.w3.org/2000/svg"><style>.tgt{animation:tgt 8s ease-out infinite}@keyframes tgt{0%,6%{opacity:.45}18%,80%{opacity:1}94%,100%{opacity:.45}}.aim{stroke-dashoffset:60;animation:aim 8s ease-out infinite}@keyframes aim{0%,6%{stroke-dashoffset:60;opacity:.5}22%,80%{stroke-dashoffset:0;opacity:1}94%,100%{stroke-dashoffset:60;opacity:.5}}.gh{animation:gh 8s ease-out infinite}@keyframes gh{0%,6%{opacity:.62}18%,80%{opacity:1}94%,100%{opacity:.62}}.p1{animation-delay:.3s}.p2{animation-delay:.6s}.p3{animation-delay:.9s}@media (prefers-reduced-motion:reduce){*{animation:none!important}}</style><rect width="799" height="391" fill="#FFFFFF"/><text x="28.0" y="40.0" font-family="'Mackinac','Fraunces',Georgia,serif" font-size="17" font-weight="600" fill="#423E3D" text-anchor="start">One movement system, four targets</text><text x="28.0" y="62.0" font-family="'ApercuMono','JetBrains Mono',ui-monospace,monospace" font-size="12" font-weight="400" fill="#878676" text-anchor="start">identical code; the ghosts differ only in the tile they aim at</text><text x="30.0" y="106.0" font-family="'Diatype','Inter',system-ui,sans-serif" font-size="12" font-weight="700" fill="#E4483C" text-anchor="start">Blinky</text><text x="86.0" y="106.0" font-family="'ApercuMono','JetBrains Mono',ui-monospace,monospace" font-size="10" font-weight="400" fill="#878676" text-anchor="start">chases directly</text><rect x="41.5" y="115.0" width="139.0" height="139.0" rx="9.0" fill="#0E1017"/><line x1="48.5" y1="122.0" x2="48.5" y2="247.0" stroke="#26314A" stroke-width="1"/><line x1="48.5" y1="122.0" x2="173.5" y2="122.0" stroke="#26314A" stroke-width="1"/><line x1="73.5" y1="122.0" x2="73.5" y2="247.0" stroke="#26314A" stroke-width="1"/><line x1="48.5" y1="147.0" x2="173.5" y2="147.0" stroke="#26314A" stroke-width="1"/><line x1="98.5" y1="122.0" x2="98.5" y2="247.0" stroke="#26314A" stroke-width="1"/><line x1="48.5" y1="172.0" x2="173.5" y2="172.0" stroke="#26314A" stroke-width="1"/><line x1="123.5" y1="122.0" x2="123.5" y2="247.0" stroke="#26314A" stroke-width="1"/><line x1="48.5" y1="197.0" x2="173.5" y2="197.0" stroke="#26314A" stroke-width="1"/><line x1="148.5" y1="122.0" x2="148.5" y2="247.0" stroke="#26314A" stroke-width="1"/><line x1="48.5" y1="222.0" x2="173.5" y2="222.0" stroke="#26314A" stroke-width="1"/><line x1="173.5" y1="122.0" x2="173.5" y2="247.0" stroke="#26314A" stroke-width="1"/><line x1="48.5" y1="247.0" x2="173.5" y2="247.0" stroke="#26314A" stroke-width="1"/><rect x="101.0" y="174.5" width="20.0" height="20.0" rx="4.0" fill="#E4483C" opacity="0.26" class="tgt p0"/><rect x="101.0" y="174.5" width="20.0" height="20.0" rx="4.0" fill="none" stroke="#E4483C" stroke-width="1.6" class="tgt p0"/><path class="aim p0" d="M 161.0 134.5 L 111.0 184.5" stroke="#E4483C" stroke-width="1.8" stroke-dasharray="4 4" fill="none"/><path d="M 111.0 184.5 L 102.5 181.4 A 9 9 0 1 0 102.5 187.6 Z" fill="#F2C744"/><path class="gh p0" d="M 153.0 134.5 a 8 8 0 0 1 16 0 v 9.5 l -2.7 -2.7 l -2.7 2.7 l -2.6 -2.7 l -2.7 2.7 l -2.7 -2.7 l -2.6 2.7 z" fill="#E4483C"/><text x="30.0" y="273.0" font-family="'ApercuMono','JetBrains Mono',ui-monospace,monospace" font-size="9" font-weight="400" fill="#878676" text-anchor="start">aims at</text><text x="30.0" y="289.0" font-family="'Diatype','Inter',system-ui,sans-serif" font-size="11" font-weight="700" fill="#423E3D" text-anchor="start">the player's tile</text><text x="208.0" y="106.0" font-family="'Diatype','Inter',system-ui,sans-serif" font-size="12" font-weight="700" fill="#F2A9CE" text-anchor="start">Pinky</text><text x="256.0" y="106.0" font-family="'ApercuMono','JetBrains Mono',ui-monospace,monospace" font-size="10" font-weight="400" fill="#878676" text-anchor="start">cuts you off</text><rect x="219.5" y="115.0" width="139.0" height="139.0" rx="9.0" fill="#0E1017"/><line x1="226.5" y1="122.0" x2="226.5" y2="247.0" stroke="#26314A" stroke-width="1"/><line x1="226.5" y1="122.0" x2="351.5" y2="122.0" stroke="#26314A" stroke-width="1"/><line x1="251.5" y1="122.0" x2="251.5" y2="247.0" stroke="#26314A" stroke-width="1"/><line x1="226.5" y1="147.0" x2="351.5" y2="147.0" stroke="#26314A" stroke-width="1"/><line x1="276.5" y1="122.0" x2="276.5" y2="247.0" stroke="#26314A" stroke-width="1"/><line x1="226.5" y1="172.0" x2="351.5" y2="172.0" stroke="#26314A" stroke-width="1"/><line x1="301.5" y1="122.0" x2="301.5" y2="247.0" stroke="#26314A" stroke-width="1"/><line x1="226.5" y1="197.0" x2="351.5" y2="197.0" stroke="#26314A" stroke-width="1"/><line x1="326.5" y1="122.0" x2="326.5" y2="247.0" stroke="#26314A" stroke-width="1"/><line x1="226.5" y1="222.0" x2="351.5" y2="222.0" stroke="#26314A" stroke-width="1"/><line x1="351.5" y1="122.0" x2="351.5" y2="247.0" stroke="#26314A" stroke-width="1"/><line x1="226.5" y1="247.0" x2="351.5" y2="247.0" stroke="#26314A" stroke-width="1"/><rect x="229.0" y="174.5" width="20.0" height="20.0" rx="4.0" fill="#F2A9CE" opacity="0.26" class="tgt p1"/><rect x="229.0" y="174.5" width="20.0" height="20.0" rx="4.0" fill="none" stroke="#F2A9CE" stroke-width="1.6" class="tgt p1"/><path class="aim p1" d="M 239.0 134.5 L 239.0 184.5" stroke="#F2A9CE" stroke-width="1.8" stroke-dasharray="4 4" fill="none"/><path d="M 289.0 184.5 L 280.5 181.4 A 9 9 0 1 0 280.5 187.6 Z" fill="#F2C744"/><path class="gh p1" d="M 231.0 134.5 a 8 8 0 0 1 16 0 v 9.5 l -2.7 -2.7 l -2.7 2.7 l -2.6 -2.7 l -2.7 2.7 l -2.7 -2.7 l -2.6 2.7 z" fill="#F2A9CE"/><text x="208.0" y="273.0" font-family="'ApercuMono','JetBrains Mono',ui-monospace,monospace" font-size="9" font-weight="400" fill="#878676" text-anchor="start">aims at</text><text x="208.0" y="289.0" font-family="'Diatype','Inter',system-ui,sans-serif" font-size="11" font-weight="700" fill="#423E3D" text-anchor="start">four tiles ahead</text><text x="386.0" y="106.0" font-family="'Diatype','Inter',system-ui,sans-serif" font-size="12" font-weight="700" fill="#5FD4E8" text-anchor="start">Inky</text><text x="426.0" y="106.0" font-family="'ApercuMono','JetBrains Mono',ui-monospace,monospace" font-size="10" font-weight="400" fill="#878676" text-anchor="start">needs Blinky too</text><rect x="397.5" y="115.0" width="139.0" height="139.0" rx="9.0" fill="#0E1017"/><line x1="404.5" y1="122.0" x2="404.5" y2="247.0" stroke="#26314A" stroke-width="1"/><line x1="404.5" y1="122.0" x2="529.5" y2="122.0" stroke="#26314A" stroke-width="1"/><line x1="429.5" y1="122.0" x2="429.5" y2="247.0" stroke="#26314A" stroke-width="1"/><line x1="404.5" y1="147.0" x2="529.5" y2="147.0" stroke="#26314A" stroke-width="1"/><line x1="454.5" y1="122.0" x2="454.5" y2="247.0" stroke="#26314A" stroke-width="1"/><line x1="404.5" y1="172.0" x2="529.5" y2="172.0" stroke="#26314A" stroke-width="1"/><line x1="479.5" y1="122.0" x2="479.5" y2="247.0" stroke="#26314A" stroke-width="1"/><line x1="404.5" y1="197.0" x2="529.5" y2="197.0" stroke="#26314A" stroke-width="1"/><line x1="504.5" y1="122.0" x2="504.5" y2="247.0" stroke="#26314A" stroke-width="1"/><line x1="404.5" y1="222.0" x2="529.5" y2="222.0" stroke="#26314A" stroke-width="1"/><line x1="529.5" y1="122.0" x2="529.5" y2="247.0" stroke="#26314A" stroke-width="1"/><line x1="404.5" y1="247.0" x2="529.5" y2="247.0" stroke="#26314A" stroke-width="1"/><rect x="507.0" y="124.5" width="20.0" height="20.0" rx="4.0" fill="#5FD4E8" opacity="0.26" class="tgt p2"/><rect x="507.0" y="124.5" width="20.0" height="20.0" rx="4.0" fill="none" stroke="#5FD4E8" stroke-width="1.6" class="tgt p2"/><path class="aim p2" d="M 517.0 234.5 L 517.0 134.5" stroke="#5FD4E8" stroke-width="1.8" stroke-dasharray="4 4" fill="none"/><path d="M 467.0 184.5 L 458.5 181.4 A 9 9 0 1 0 458.5 187.6 Z" fill="#F2C744"/><path class="gh p2" d="M 509.0 234.5 a 8 8 0 0 1 16 0 v 9.5 l -2.7 -2.7 l -2.7 2.7 l -2.6 -2.7 l -2.7 2.7 l -2.7 -2.7 l -2.6 2.7 z" fill="#5FD4E8"/><text x="386.0" y="273.0" font-family="'ApercuMono','JetBrains Mono',ui-monospace,monospace" font-size="9" font-weight="400" fill="#878676" text-anchor="start">aims at</text><text x="386.0" y="289.0" font-family="'Diatype','Inter',system-ui,sans-serif" font-size="11" font-weight="700" fill="#423E3D" text-anchor="start">reflected through Blinky</text><text x="564.0" y="106.0" font-family="'Diatype','Inter',system-ui,sans-serif" font-size="12" font-weight="700" fill="#EFA24B" text-anchor="start">Clyde</text><text x="612.0" y="106.0" font-family="'ApercuMono','JetBrains Mono',ui-monospace,monospace" font-size="10" font-weight="400" fill="#878676" text-anchor="start">gives up nearby</text><rect x="575.5" y="115.0" width="139.0" height="139.0" rx="9.0" fill="#0E1017"/><line x1="582.5" y1="122.0" x2="582.5" y2="247.0" stroke="#26314A" stroke-width="1"/><line x1="582.5" y1="122.0" x2="707.5" y2="122.0" stroke="#26314A" stroke-width="1"/><line x1="607.5" y1="122.0" x2="607.5" y2="247.0" stroke="#26314A" stroke-width="1"/><line x1="582.5" y1="147.0" x2="707.5" y2="147.0" stroke="#26314A" stroke-width="1"/><line x1="632.5" y1="122.0" x2="632.5" y2="247.0" stroke="#26314A" stroke-width="1"/><line x1="582.5" y1="172.0" x2="707.5" y2="172.0" stroke="#26314A" stroke-width="1"/><line x1="657.5" y1="122.0" x2="657.5" y2="247.0" stroke="#26314A" stroke-width="1"/><line x1="582.5" y1="197.0" x2="707.5" y2="197.0" stroke="#26314A" stroke-width="1"/><line x1="682.5" y1="122.0" x2="682.5" y2="247.0" stroke="#26314A" stroke-width="1"/><line x1="582.5" y1="222.0" x2="707.5" y2="222.0" stroke="#26314A" stroke-width="1"/><line x1="707.5" y1="122.0" x2="707.5" y2="247.0" stroke="#26314A" stroke-width="1"/><line x1="582.5" y1="247.0" x2="707.5" y2="247.0" stroke="#26314A" stroke-width="1"/><rect x="585.0" y="224.5" width="20.0" height="20.0" rx="4.0" fill="#EFA24B" opacity="0.26" class="tgt p3"/><rect x="585.0" y="224.5" width="20.0" height="20.0" rx="4.0" fill="none" stroke="#EFA24B" stroke-width="1.6" class="tgt p3"/><path class="aim p3" d="M 645.0 234.5 L 595.0 234.5" stroke="#EFA24B" stroke-width="1.8" stroke-dasharray="4 4" fill="none"/><path d="M 645.0 184.5 L 636.5 181.4 A 9 9 0 1 0 636.5 187.6 Z" fill="#F2C744"/><path class="gh p3" d="M 637.0 234.5 a 8 8 0 0 1 16 0 v 9.5 l -2.7 -2.7 l -2.7 2.7 l -2.6 -2.7 l -2.7 2.7 l -2.7 -2.7 l -2.6 2.7 z" fill="#EFA24B"/><text x="564.0" y="273.0" font-family="'ApercuMono','JetBrains Mono',ui-monospace,monospace" font-size="9" font-weight="400" fill="#878676" text-anchor="start">aims at</text><text x="564.0" y="289.0" font-family="'Diatype','Inter',system-ui,sans-serif" font-size="11" font-weight="700" fill="#423E3D" text-anchor="start">his corner, when close</text><line x1="28" y1="303.0" x2="771" y2="303.0" stroke="#E3E1CC" stroke-width="1"/><text x="28.0" y="325.0" font-family="'Diatype','Inter',system-ui,sans-serif" font-size="12" font-weight="400" fill="#423E3D" text-anchor="start">At every junction each of them runs the same comparison: take the exit that most reduces the distance to my target.</text><text x="28.0" y="343.0" font-family="'Diatype','Inter',system-ui,sans-serif" font-size="11" font-weight="400" fill="#878676" text-anchor="start">Frightened mode does not replace that rule. It flips the comparison to the exit that INCREASES it.</text></svg>
