<svg width="799" height="391" viewBox="0 0 799 391" fill="none" xmlns="http://www.w3.org/2000/svg"><style>.pb{opacity:0;animation:pb 7s ease-out infinite}@keyframes pb{0%{opacity:0;transform:translateY(8px)}14%,90%{opacity:1;transform:translateY(0)}100%{opacity:0}}@media (prefers-reduced-motion:reduce){*{animation:none!important}}</style><rect width="799" height="391" fill="#FFFFFF"/><text x="28.0" y="40.0" font-family="'Mackinac','Fraunces',Georgia,serif" font-size="17" font-weight="600" fill="#423E3D" text-anchor="start">The same blocks, ranked differently</text><text x="28.0" y="62.0" font-family="'ApercuMono','JetBrains Mono',ui-monospace,monospace" font-size="12" font-weight="400" fill="#878676" text-anchor="start">colour follows one block across the three</text><rect x="28.0" y="88.0" width="224.0" height="30.0" rx="8.0" fill="#8460C6" opacity="0.12"/><text x="140.0" y="108.0" font-family="'Diatype','Inter',system-ui,sans-serif" font-size="12" font-weight="700" fill="#8460C6" text-anchor="middle">Operator</text><rect x="28.0" y="130.0" width="224.0" height="44.0" rx="7.0" fill="#649F25" opacity="0.17" class="pb b0" style="animation-delay:0.00s"/><rect x="28.0" y="130.0" width="4.0" height="44.0" rx="2.0" fill="#649F25" class="pb b0" style="animation-delay:0.00s"/><text x="42.0" y="152.0" font-family="'Diatype','Inter',system-ui,sans-serif" font-size="10" font-weight="700" fill="#649F25" text-anchor="start" class="pb b0">Tasks due</text><rect x="28.0" y="180.0" width="224.0" height="40.0" rx="7.0" fill="#1F597B" opacity="0.17" class="pb b1" style="animation-delay:0.10s"/><rect x="28.0" y="180.0" width="4.0" height="40.0" rx="2.0" fill="#1F597B" class="pb b1" style="animation-delay:0.10s"/><text x="42.0" y="202.0" font-family="'Diatype','Inter',system-ui,sans-serif" font-size="10" font-weight="700" fill="#1F597B" text-anchor="start" class="pb b1">What I own</text><rect x="28.0" y="226.0" width="224.0" height="36.0" rx="7.0" fill="#649F25" opacity="0.17" class="pb b2" style="animation-delay:0.20s"/><rect x="28.0" y="226.0" width="4.0" height="36.0" rx="2.0" fill="#649F25" class="pb b2" style="animation-delay:0.20s"/><text x="42.0" y="248.0" font-family="'Diatype','Inter',system-ui,sans-serif" font-size="10" font-weight="700" fill="#649F25" text-anchor="start" class="pb b2">Recent activity</text><rect x="28.0" y="268.0" width="224.0" height="32.0" rx="7.0" fill="#8460C6" opacity="0.17" class="pb b3" style="animation-delay:0.30s"/><rect x="28.0" y="268.0" width="4.0" height="32.0" rx="2.0" fill="#8460C6" class="pb b3" style="animation-delay:0.30s"/><text x="42.0" y="290.0" font-family="'Diatype','Inter',system-ui,sans-serif" font-size="10" font-weight="700" fill="#8460C6" text-anchor="start" class="pb b3">Team view</text><rect x="28.0" y="306.0" width="224.0" height="28.0" rx="7.0" fill="#E8B84B" opacity="0.17" class="pb b4" style="animation-delay:0.40s"/><rect x="28.0" y="306.0" width="4.0" height="28.0" rx="2.0" fill="#E8B84B" class="pb b4" style="animation-delay:0.40s"/><text x="42.0" y="328.0" font-family="'Diatype','Inter',system-ui,sans-serif" font-size="10" font-weight="700" fill="#E8B84B" text-anchor="start" class="pb b4">Getting started</text><rect x="282.0" y="88.0" width="224.0" height="30.0" rx="8.0" fill="#8460C6" opacity="0.12"/><text x="394.0" y="108.0" font-family="'Diatype','Inter',system-ui,sans-serif" font-size="12" font-weight="700" fill="#8460C6" text-anchor="middle">Owner</text><rect x="282.0" y="130.0" width="224.0" height="44.0" rx="7.0" fill="#1F597B" opacity="0.17" class="pb b0" style="animation-delay:0.00s"/><rect x="282.0" y="130.0" width="4.0" height="44.0" rx="2.0" fill="#1F597B" class="pb b0" style="animation-delay:0.00s"/><text x="296.0" y="152.0" font-family="'Diatype','Inter',system-ui,sans-serif" font-size="10" font-weight="700" fill="#1F597B" text-anchor="start" class="pb b0">What I own</text><rect x="282.0" y="180.0" width="224.0" height="40.0" rx="7.0" fill="#8460C6" opacity="0.17" class="pb b1" style="animation-delay:0.10s"/><rect x="282.0" y="180.0" width="4.0" height="40.0" rx="2.0" fill="#8460C6" class="pb b1" style="animation-delay:0.10s"/><text x="296.0" y="202.0" font-family="'Diatype','Inter',system-ui,sans-serif" font-size="10" font-weight="700" fill="#8460C6" text-anchor="start" class="pb b1">Team view</text><rect x="282.0" y="226.0" width="224.0" height="36.0" rx="7.0" fill="#649F25" opacity="0.17" class="pb b2" style="animation-delay:0.20s"/><rect x="282.0" y="226.0" width="4.0" height="36.0" rx="2.0" fill="#649F25" class="pb b2" style="animation-delay:0.20s"/><text x="296.0" y="248.0" font-family="'Diatype','Inter',system-ui,sans-serif" font-size="10" font-weight="700" fill="#649F25" text-anchor="start" class="pb b2">Tasks due</text><rect x="282.0" y="268.0" width="224.0" height="32.0" rx="7.0" fill="#649F25" opacity="0.17" class="pb b3" style="animation-delay:0.30s"/><rect x="282.0" y="268.0" width="4.0" height="32.0" rx="2.0" fill="#649F25" class="pb b3" style="animation-delay:0.30s"/><text x="296.0" y="290.0" font-family="'Diatype','Inter',system-ui,sans-serif" font-size="10" font-weight="700" fill="#649F25" text-anchor="start" class="pb b3">Recent activity</text><rect x="282.0" y="306.0" width="224.0" height="28.0" rx="7.0" fill="#E8B84B" opacity="0.17" class="pb b4" style="animation-delay:0.40s"/><rect x="282.0" y="306.0" width="4.0" height="28.0" rx="2.0" fill="#E8B84B" class="pb b4" style="animation-delay:0.40s"/><text x="296.0" y="328.0" font-family="'Diatype','Inter',system-ui,sans-serif" font-size="10" font-weight="700" fill="#E8B84B" text-anchor="start" class="pb b4">Getting started</text><rect x="536.0" y="88.0" width="224.0" height="30.0" rx="8.0" fill="#8460C6" opacity="0.12"/><text x="648.0" y="108.0" font-family="'Diatype','Inter',system-ui,sans-serif" font-size="12" font-weight="700" fill="#8460C6" text-anchor="middle">Newcomer</text><rect x="536.0" y="130.0" width="224.0" height="44.0" rx="7.0" fill="#E8B84B" opacity="0.17" class="pb b0" style="animation-delay:0.00s"/><rect x="536.0" y="130.0" width="4.0" height="44.0" rx="2.0" fill="#E8B84B" class="pb b0" style="animation-delay:0.00s"/><text x="550.0" y="152.0" font-family="'Diatype','Inter',system-ui,sans-serif" font-size="10" font-weight="700" fill="#E8B84B" text-anchor="start" class="pb b0">Getting started</text><rect x="536.0" y="180.0" width="224.0" height="40.0" rx="7.0" fill="#649F25" opacity="0.17" class="pb b1" style="animation-delay:0.10s"/><rect x="536.0" y="180.0" width="4.0" height="40.0" rx="2.0" fill="#649F25" class="pb b1" style="animation-delay:0.10s"/><text x="550.0" y="202.0" font-family="'Diatype','Inter',system-ui,sans-serif" font-size="10" font-weight="700" fill="#649F25" text-anchor="start" class="pb b1">Tasks due</text><rect x="536.0" y="226.0" width="224.0" height="36.0" rx="7.0" fill="#1F597B" opacity="0.17" class="pb b2" style="animation-delay:0.20s"/><rect x="536.0" y="226.0" width="4.0" height="36.0" rx="2.0" fill="#1F597B" class="pb b2" style="animation-delay:0.20s"/><text x="550.0" y="248.0" font-family="'Diatype','Inter',system-ui,sans-serif" font-size="10" font-weight="700" fill="#1F597B" text-anchor="start" class="pb b2">What I own</text><rect x="536.0" y="268.0" width="224.0" height="32.0" rx="7.0" fill="#649F25" opacity="0.17" class="pb b3" style="animation-delay:0.30s"/><rect x="536.0" y="268.0" width="4.0" height="32.0" rx="2.0" fill="#649F25" class="pb b3" style="animation-delay:0.30s"/><text x="550.0" y="290.0" font-family="'Diatype','Inter',system-ui,sans-serif" font-size="10" font-weight="700" fill="#649F25" text-anchor="start" class="pb b3">Recent activity</text><rect x="536.0" y="306.0" width="224.0" height="28.0" rx="7.0" fill="#8460C6" opacity="0.17" class="pb b4" style="animation-delay:0.40s"/><rect x="536.0" y="306.0" width="4.0" height="28.0" rx="2.0" fill="#8460C6" class="pb b4" style="animation-delay:0.40s"/><text x="550.0" y="328.0" font-family="'Diatype','Inter',system-ui,sans-serif" font-size="10" font-weight="700" fill="#8460C6" text-anchor="start" class="pb b4">Team view</text></svg>
