<svg width="799" height="391" viewBox="0 0 799 391" fill="none" xmlns="http://www.w3.org/2000/svg"><style>.cat-grp{transition:opacity .16s ease}.cat-hit{cursor:pointer}.cat-row{transition:opacity .16s ease}svg:has(.cat-grp:hover) .cat-grp:not(:hover){opacity:.28}svg:has(.cat-grp:hover) .cat-grp:hover .cat-row{opacity:1}@media (prefers-reduced-motion:reduce){.cat-grp,.cat-row{transition:none}}</style><rect x="0.0" y="0.0" width="799.0" height="391.0" rx="0.0" fill="#FFFFFF"/><g class="cat-grp" data-c="0"><rect class="cat-hit" x="22.0" y="24.0" width="245.0" height="227.0" fill="#000" fill-opacity="0" pointer-events="all"/><rect x="26.0" y="29.0" width="3.5" height="12.0" rx="2.0" fill="#649F25"/><text x="36.0" y="40.0" font-family="'Thistle',monospace" font-size="9.5" font-weight="700" fill="#878676" text-anchor="start">MATURITY &amp; COMPLIANCE</text><g class="cat-row"><rect x="26.0" y="52.0" width="237.0" height="19.0" rx="4.0" fill="#649F25" opacity="0.11"/><rect x="26.0" y="52.0" width="2.5" height="19.0" rx="1.5" fill="#649F25"/><text x="35.0" y="65.5" font-family="'Clover',sans-serif" font-size="10.5" font-weight="500" fill="#423E3D" text-anchor="start">Maturity score</text></g><g class="cat-row"><rect x="26.0" y="75.0" width="237.0" height="19.0" rx="4.0" fill="#649F25" opacity="0.11"/><rect x="26.0" y="75.0" width="2.5" height="19.0" rx="1.5" fill="#649F25"/><text x="35.0" y="88.5" font-family="'Clover',sans-serif" font-size="10.5" font-weight="500" fill="#423E3D" text-anchor="start">Score (numeric)</text></g><g class="cat-row"><rect x="26.0" y="98.0" width="237.0" height="19.0" rx="4.0" fill="#649F25" opacity="0.11"/><rect x="26.0" y="98.0" width="2.5" height="19.0" rx="1.5" fill="#649F25"/><text x="35.0" y="111.5" font-family="'Clover',sans-serif" font-size="10.5" font-weight="500" fill="#423E3D" text-anchor="start">7-day delta</text></g><g class="cat-row"><rect x="26.0" y="121.0" width="237.0" height="19.0" rx="4.0" fill="#649F25" opacity="0.11"/><rect x="26.0" y="121.0" width="2.5" height="19.0" rx="1.5" fill="#649F25"/><text x="35.0" y="134.5" font-family="'Clover',sans-serif" font-size="10.5" font-weight="500" fill="#423E3D" text-anchor="start">Score trend</text></g><g class="cat-row"><rect x="26.0" y="144.0" width="237.0" height="19.0" rx="4.0" fill="#649F25" opacity="0.11"/><rect x="26.0" y="144.0" width="2.5" height="19.0" rx="1.5" fill="#649F25"/><text x="35.0" y="157.5" font-family="'Clover',sans-serif" font-size="10.5" font-weight="500" fill="#423E3D" text-anchor="start">Job breakdown</text></g><g class="cat-row"><rect x="26.0" y="167.0" width="237.0" height="19.0" rx="4.0" fill="#649F25" opacity="0.11"/><rect x="26.0" y="167.0" width="2.5" height="19.0" rx="1.5" fill="#649F25"/><text x="35.0" y="180.5" font-family="'Clover',sans-serif" font-size="10.5" font-weight="500" fill="#423E3D" text-anchor="start">Upcoming requirements</text></g><g class="cat-row"><rect x="26.0" y="190.0" width="237.0" height="19.0" rx="4.0" fill="#649F25" opacity="0.11"/><rect x="26.0" y="190.0" width="2.5" height="19.0" rx="1.5" fill="#649F25"/><text x="35.0" y="203.5" font-family="'Clover',sans-serif" font-size="10.5" font-weight="500" fill="#423E3D" text-anchor="start">Jobs open</text></g><g class="cat-row"><rect x="26.0" y="213.0" width="237.0" height="19.0" rx="4.0" fill="#649F25" opacity="0.11"/><rect x="26.0" y="213.0" width="2.5" height="19.0" rx="1.5" fill="#649F25"/><text x="35.0" y="226.5" font-family="'Clover',sans-serif" font-size="10.5" font-weight="500" fill="#423E3D" text-anchor="start">Job burndown</text></g><g class="cat-row"><rect x="26.0" y="236.0" width="237.0" height="19.0" rx="4.0" fill="#649F25" opacity="0.11"/><rect x="26.0" y="236.0" width="2.5" height="19.0" rx="1.5" fill="#649F25"/><text x="35.0" y="249.5" font-family="'Clover',sans-serif" font-size="10.5" font-weight="500" fill="#423E3D" text-anchor="start">Jobs</text></g></g><g class="cat-grp" data-c="1"><rect class="cat-hit" x="281.0" y="24.0" width="245.0" height="135.0" fill="#000" fill-opacity="0" pointer-events="all"/><rect x="285.0" y="29.0" width="3.5" height="12.0" rx="2.0" fill="#B4552F"/><text x="295.0" y="40.0" font-family="'Thistle',monospace" font-size="9.5" font-weight="700" fill="#878676" text-anchor="start">GOVERNANCE AUTOMATION</text><g class="cat-row"><rect x="285.0" y="52.0" width="237.0" height="19.0" rx="4.0" fill="#B4552F" opacity="0.11"/><rect x="285.0" y="52.0" width="2.5" height="19.0" rx="1.5" fill="#B4552F"/><text x="294.0" y="65.5" font-family="'Clover',sans-serif" font-size="10.5" font-weight="500" fill="#423E3D" text-anchor="start">Governance automation</text></g><g class="cat-row"><rect x="285.0" y="75.0" width="237.0" height="19.0" rx="4.0" fill="#B4552F" opacity="0.11"/><rect x="285.0" y="75.0" width="2.5" height="19.0" rx="1.5" fill="#B4552F"/><text x="294.0" y="88.5" font-family="'Clover',sans-serif" font-size="10.5" font-weight="500" fill="#423E3D" text-anchor="start">Pipeline events</text></g><g class="cat-row"><rect x="285.0" y="98.0" width="237.0" height="19.0" rx="4.0" fill="#B4552F" opacity="0.11"/><rect x="285.0" y="98.0" width="2.5" height="19.0" rx="1.5" fill="#B4552F"/><text x="294.0" y="111.5" font-family="'Clover',sans-serif" font-size="10.5" font-weight="500" fill="#423E3D" text-anchor="start">Change status</text></g><g class="cat-row"><rect x="285.0" y="121.0" width="237.0" height="19.0" rx="4.0" fill="#B4552F" opacity="0.11"/><rect x="285.0" y="121.0" width="2.5" height="19.0" rx="1.5" fill="#B4552F"/><text x="294.0" y="134.5" font-family="'Clover',sans-serif" font-size="10.5" font-weight="500" fill="#423E3D" text-anchor="start">Automated campaigns</text></g><g class="cat-row"><rect x="285.0" y="144.0" width="237.0" height="19.0" rx="4.0" fill="#B4552F" opacity="0.11"/><rect x="285.0" y="144.0" width="2.5" height="19.0" rx="1.5" fill="#B4552F"/><text x="294.0" y="157.5" font-family="'Clover',sans-serif" font-size="10.5" font-weight="500" fill="#423E3D" text-anchor="start">Remediations</text></g></g><g class="cat-grp" data-c="2"><rect class="cat-hit" x="281.0" y="167.0" width="245.0" height="66.0" fill="#000" fill-opacity="0" pointer-events="all"/><rect x="285.0" y="172.0" width="3.5" height="12.0" rx="2.0" fill="#E8B84B"/><text x="295.0" y="183.0" font-family="'Thistle',monospace" font-size="9.5" font-weight="700" fill="#878676" text-anchor="start">COST</text><g class="cat-row"><rect x="285.0" y="195.0" width="237.0" height="19.0" rx="4.0" fill="#E8B84B" opacity="0.11"/><rect x="285.0" y="195.0" width="2.5" height="19.0" rx="1.5" fill="#E8B84B"/><text x="294.0" y="208.5" font-family="'Clover',sans-serif" font-size="10.5" font-weight="500" fill="#423E3D" text-anchor="start">Cloud cost</text></g><g class="cat-row"><rect x="285.0" y="218.0" width="237.0" height="19.0" rx="4.0" fill="#E8B84B" opacity="0.11"/><rect x="285.0" y="218.0" width="2.5" height="19.0" rx="1.5" fill="#E8B84B"/><text x="294.0" y="231.5" font-family="'Clover',sans-serif" font-size="10.5" font-weight="500" fill="#423E3D" text-anchor="start">Cost by service</text></g></g><g class="cat-grp" data-c="3"><rect class="cat-hit" x="540.0" y="24.0" width="245.0" height="66.0" fill="#000" fill-opacity="0" pointer-events="all"/><rect x="544.0" y="29.0" width="3.5" height="12.0" rx="2.0" fill="#8460C6"/><text x="554.0" y="40.0" font-family="'Thistle',monospace" font-size="9.5" font-weight="700" fill="#878676" text-anchor="start">ALERTS &amp; HEALTH</text><g class="cat-row"><rect x="544.0" y="52.0" width="237.0" height="19.0" rx="4.0" fill="#8460C6" opacity="0.11"/><rect x="544.0" y="52.0" width="2.5" height="19.0" rx="1.5" fill="#8460C6"/><text x="553.0" y="65.5" font-family="'Clover',sans-serif" font-size="10.5" font-weight="500" fill="#423E3D" text-anchor="start">Recent notices</text></g><g class="cat-row"><rect x="544.0" y="75.0" width="237.0" height="19.0" rx="4.0" fill="#8460C6" opacity="0.11"/><rect x="544.0" y="75.0" width="2.5" height="19.0" rx="1.5" fill="#8460C6"/><text x="553.0" y="88.5" font-family="'Clover',sans-serif" font-size="10.5" font-weight="500" fill="#423E3D" text-anchor="start">Service health</text></g></g><g class="cat-grp" data-c="4"><rect class="cat-hit" x="540.0" y="98.0" width="245.0" height="135.0" fill="#000" fill-opacity="0" pointer-events="all"/><rect x="544.0" y="103.0" width="3.5" height="12.0" rx="2.0" fill="#1F597B"/><text x="554.0" y="114.0" font-family="'Thistle',monospace" font-size="9.5" font-weight="700" fill="#878676" text-anchor="start">PORTFOLIO</text><g class="cat-row"><rect x="544.0" y="126.0" width="237.0" height="19.0" rx="4.0" fill="#1F597B" opacity="0.11"/><rect x="544.0" y="126.0" width="2.5" height="19.0" rx="1.5" fill="#1F597B"/><text x="553.0" y="139.5" font-family="'Clover',sans-serif" font-size="10.5" font-weight="500" fill="#423E3D" text-anchor="start">Application details</text></g><g class="cat-row"><rect x="544.0" y="149.0" width="237.0" height="19.0" rx="4.0" fill="#1F597B" opacity="0.11"/><rect x="544.0" y="149.0" width="2.5" height="19.0" rx="1.5" fill="#1F597B"/><text x="553.0" y="162.5" font-family="'Clover',sans-serif" font-size="10.5" font-weight="500" fill="#423E3D" text-anchor="start">Applications</text></g><g class="cat-row"><rect x="544.0" y="172.0" width="237.0" height="19.0" rx="4.0" fill="#1F597B" opacity="0.11"/><rect x="544.0" y="172.0" width="2.5" height="19.0" rx="1.5" fill="#1F597B"/><text x="553.0" y="185.5" font-family="'Clover',sans-serif" font-size="10.5" font-weight="500" fill="#423E3D" text-anchor="start">Accounts</text></g><g class="cat-row"><rect x="544.0" y="195.0" width="237.0" height="19.0" rx="4.0" fill="#1F597B" opacity="0.11"/><rect x="544.0" y="195.0" width="2.5" height="19.0" rx="1.5" fill="#1F597B"/><text x="553.0" y="208.5" font-family="'Clover',sans-serif" font-size="10.5" font-weight="500" fill="#423E3D" text-anchor="start">Divisional rollup</text></g><g class="cat-row"><rect x="544.0" y="218.0" width="237.0" height="19.0" rx="4.0" fill="#1F597B" opacity="0.11"/><rect x="544.0" y="218.0" width="2.5" height="19.0" rx="1.5" fill="#1F597B"/><text x="553.0" y="231.5" font-family="'Clover',sans-serif" font-size="10.5" font-weight="500" fill="#423E3D" text-anchor="start">Top resources by jobs</text></g></g><g class="cat-grp" data-c="5"><rect class="cat-hit" x="540.0" y="241.0" width="245.0" height="66.0" fill="#000" fill-opacity="0" pointer-events="all"/><rect x="544.0" y="246.0" width="3.5" height="12.0" rx="2.0" fill="#878676"/><text x="554.0" y="257.0" font-family="'Thistle',monospace" font-size="9.5" font-weight="700" fill="#878676" text-anchor="start">LAYOUT</text><g class="cat-row"><rect x="544.0" y="269.0" width="237.0" height="19.0" rx="4.0" fill="#878676" opacity="0.11"/><rect x="544.0" y="269.0" width="2.5" height="19.0" rx="1.5" fill="#878676"/><text x="553.0" y="282.5" font-family="'Clover',sans-serif" font-size="10.5" font-weight="500" fill="#423E3D" text-anchor="start">Section title</text></g><g class="cat-row"><rect x="544.0" y="292.0" width="237.0" height="19.0" rx="4.0" fill="#878676" opacity="0.11"/><rect x="544.0" y="292.0" width="2.5" height="19.0" rx="1.5" fill="#878676"/><text x="553.0" y="305.5" font-family="'Clover',sans-serif" font-size="10.5" font-weight="500" fill="#423E3D" text-anchor="start">Smart stack</text></g></g><text x="26.0" y="24.0" font-family="'Thistle',monospace" font-size="9.5" font-weight="700" fill="#423E3D" text-anchor="start">TWENTY-FOUR WIDGETS, SIX HEADINGS</text><text x="773.0" y="24.0" font-family="'Clover',sans-serif" font-size="10" font-weight="400" fill="#878676" text-anchor="end">every one of them already existed somewhere</text></svg>
