<svg width="1200" height="700" viewBox="0 0 1200 700" fill="none" xmlns="http://www.w3.org/2000/svg"><style>.ord{opacity:0;animation:od 11s infinite}@keyframes od{0%,1%{opacity:0}5%,46%{opacity:1}50%,100%{opacity:0}}.o1{animation-delay:5.5s}.pill{animation:pl 11s infinite}@keyframes pl{0%,44%{transform:translateX(0)}50%,94%{transform:translateX(200px)}100%{transform:translateX(0)}}@media (prefers-reduced-motion:reduce){*{animation:none!important}}</style><rect x="0.0" y="0.0" width="1200.0" height="700.0" rx="16.0" fill="#FFFFFF"/><rect x="0.0" y="0.0" width="1200.0" height="52.0" rx="16.0" fill="#F7F5EA"/><rect x="0.0" y="36.0" width="1200.0" height="16.0" rx="0.0" fill="#F7F5EA"/><line x1="0" y1="52" x2="1200" y2="52" stroke="#E3E1CC" stroke-width="1.5"/><circle cx="28" cy="26" r="6.5" fill="#E6685C"/><circle cx="50" cy="26" r="6.5" fill="#E8B84B"/><circle cx="72" cy="26" r="6.5" fill="#7DC26B"/><rect x="108.0" y="13.0" width="430.0" height="26.0" rx="13.0" fill="#FFFFFF" stroke="#E3E1CC" stroke-width="1"/><text x="126.0" y="31.0" font-family="'JetBrains Mono',monospace" font-size="13" font-weight="400" fill="#878676" text-anchor="start">homepage</text><rect x="1104.0" y="13.0" width="62.0" height="26.0" rx="13.0" fill="#8460C6" opacity="0.16"/><rect x="0.0" y="52.0" width="1200.0" height="648.0" rx="0.0" fill="#F2F5F7"/><rect x="0.0" y="52.0" width="88.0" height="648.0" rx="0.0" fill="#0C3A5E"/><circle cx="44" cy="92" r="13" fill="#F5C647"/><rect x="35.0" y="140.0" width="18.0" height="18.0" rx="4.0" fill="#C6D6E1" opacity="0.55"/><rect x="16.0" y="178.0" width="56.0" height="36.0" rx="9.0" fill="#FFFFFF" opacity="0.14"/><rect x="35.0" y="186.0" width="18.0" height="18.0" rx="4.0" fill="#C6D6E1" opacity="1.00"/><rect x="35.0" y="232.0" width="18.0" height="18.0" rx="4.0" fill="#C6D6E1" opacity="0.55"/><rect x="35.0" y="278.0" width="18.0" height="18.0" rx="4.0" fill="#C6D6E1" opacity="0.55"/><rect x="35.0" y="324.0" width="18.0" height="18.0" rx="4.0" fill="#C6D6E1" opacity="0.55"/><rect x="35.0" y="370.0" width="18.0" height="18.0" rx="4.0" fill="#C6D6E1" opacity="0.55"/><text x="150.0" y="130.0" font-family="'Inter',sans-serif" font-size="34" font-weight="800" fill="#1B2B3A" text-anchor="start">Welcome back!</text><rect x="150.0" y="158.0" width="1010.0" height="42.0" rx="12.0" fill="#EDF1F4"/><text x="166.0" y="185.0" font-family="'JetBrains Mono',monospace" font-size="13" font-weight="700" fill="#7C8B99" text-anchor="start">PAGE SCOPE</text><rect class="pill" x="286" y="164" width="188" height="30" rx="15" fill="#DCE7EF" stroke="#12395A" stroke-width="2"/><text x="380.0" y="185.0" font-family="'Inter',sans-serif" font-size="15" font-weight="700" fill="#33475B" text-anchor="middle">Account</text><text x="580.0" y="185.0" font-family="'Inter',sans-serif" font-size="15" font-weight="700" fill="#33475B" text-anchor="middle">Division</text><rect x="1006.0" y="166.0" width="88.0" height="26.0" rx="13.0" fill="#E3E9EE"/><rect x="1102.0" y="166.0" width="44.0" height="26.0" rx="13.0" fill="#5D7183"/><g class="ord o0"><rect x="150.0" y="220.0" width="327.3" height="156.0" rx="12.0" fill="#12395A"/><rect x="166.0" y="235.0" width="20.0" height="20.0" rx="6.0" fill="#FFFFFF" opacity="0.16"/><text x="196.0" y="250.0" font-family="'Inter',sans-serif" font-size="16" font-weight="700" fill="#FFFFFF" text-anchor="start">Maturity score</text><text x="166.0" y="354.0" font-family="'Inter',sans-serif" font-size="68" font-weight="800" fill="#FFFFFF" text-anchor="start">A-</text><rect x="491.3" y="220.0" width="327.3" height="156.0" rx="12.0" fill="#FFFFFF" stroke="#E2E9EE" stroke-width="1.5"/><rect x="507.3" y="235.0" width="20.0" height="20.0" rx="6.0" fill="#423E3D" opacity="0.16"/><text x="537.3" y="250.0" font-family="'Inter',sans-serif" font-size="16" font-weight="700" fill="#423E3D" text-anchor="start">Score trend</text><rect x="507.3" y="278.0" width="260.0" height="9.0" rx="4.5" fill="#E3E1CC"/><rect x="507.3" y="300.0" width="190.0" height="9.0" rx="4.5" fill="#E3E1CC"/><rect x="507.3" y="350.0" width="120.0" height="9.0" rx="4.0" fill="#E3E1CC"/><rect x="832.7" y="220.0" width="327.3" height="156.0" rx="12.0" fill="#F5C647"/><rect x="848.7" y="235.0" width="20.0" height="20.0" rx="6.0" fill="#20344A" opacity="0.16"/><text x="878.7" y="250.0" font-family="'Inter',sans-serif" font-size="16" font-weight="700" fill="#20344A" text-anchor="start">Governance</text><rect x="848.7" y="278.0" width="260.0" height="9.0" rx="4.5" fill="#B08C1F"/><rect x="848.7" y="300.0" width="190.0" height="9.0" rx="4.5" fill="#B08C1F"/><rect x="848.7" y="350.0" width="120.0" height="9.0" rx="4.0" fill="#B08C1F"/><rect x="150.0" y="390.0" width="1010.0" height="118.0" rx="12.0" fill="#FFFFFF" stroke="#E2E9EE" stroke-width="1.5"/><rect x="166.0" y="405.0" width="20.0" height="20.0" rx="6.0" fill="#423E3D" opacity="0.16"/><text x="196.0" y="420.0" font-family="'Inter',sans-serif" font-size="16" font-weight="700" fill="#423E3D" text-anchor="start">Recent notices</text><rect x="166.0" y="448.0" width="260.0" height="9.0" rx="4.5" fill="#E3E1CC"/><rect x="166.0" y="470.0" width="190.0" height="9.0" rx="4.5" fill="#E3E1CC"/><rect x="166.0" y="482.0" width="120.0" height="9.0" rx="4.0" fill="#E3E1CC"/><rect x="150.0" y="522.0" width="668.7" height="118.0" rx="12.0" fill="#FFFFFF" stroke="#E2E9EE" stroke-width="1.5"/><rect x="166.0" y="537.0" width="20.0" height="20.0" rx="6.0" fill="#423E3D" opacity="0.16"/><text x="196.0" y="552.0" font-family="'Inter',sans-serif" font-size="16" font-weight="700" fill="#423E3D" text-anchor="start">Cloud cost</text><rect x="166.0" y="580.0" width="260.0" height="9.0" rx="4.5" fill="#E3E1CC"/><rect x="166.0" y="602.0" width="190.0" height="9.0" rx="4.5" fill="#E3E1CC"/><rect x="166.0" y="614.0" width="120.0" height="9.0" rx="4.0" fill="#E3E1CC"/><rect x="832.7" y="522.0" width="327.3" height="118.0" rx="12.0" fill="#FFFFFF" stroke="#E2E9EE" stroke-width="1.5"/><rect x="848.7" y="537.0" width="20.0" height="20.0" rx="6.0" fill="#423E3D" opacity="0.16"/><text x="878.7" y="552.0" font-family="'Inter',sans-serif" font-size="16" font-weight="700" fill="#423E3D" text-anchor="start">Service health</text><rect x="848.7" y="580.0" width="260.0" height="9.0" rx="4.5" fill="#E3E1CC"/><rect x="848.7" y="602.0" width="190.0" height="9.0" rx="4.5" fill="#E3E1CC"/><rect x="848.7" y="614.0" width="120.0" height="9.0" rx="4.0" fill="#E3E1CC"/></g><g class="ord o1"><rect x="150.0" y="220.0" width="327.3" height="156.0" rx="12.0" fill="#F5C647"/><rect x="166.0" y="235.0" width="20.0" height="20.0" rx="6.0" fill="#20344A" opacity="0.16"/><text x="196.0" y="250.0" font-family="'Inter',sans-serif" font-size="16" font-weight="700" fill="#20344A" text-anchor="start">Governance</text><rect x="166.0" y="278.0" width="260.0" height="9.0" rx="4.5" fill="#B08C1F"/><rect x="166.0" y="300.0" width="190.0" height="9.0" rx="4.5" fill="#B08C1F"/><rect x="166.0" y="350.0" width="120.0" height="9.0" rx="4.0" fill="#B08C1F"/><rect x="491.3" y="220.0" width="327.3" height="156.0" rx="12.0" fill="#12395A"/><rect x="507.3" y="235.0" width="20.0" height="20.0" rx="6.0" fill="#FFFFFF" opacity="0.16"/><text x="537.3" y="250.0" font-family="'Inter',sans-serif" font-size="16" font-weight="700" fill="#FFFFFF" text-anchor="start">Maturity score</text><text x="507.3" y="354.0" font-family="'Inter',sans-serif" font-size="68" font-weight="800" fill="#FFFFFF" text-anchor="start">B+</text><rect x="832.7" y="220.0" width="327.3" height="156.0" rx="12.0" fill="#FFFFFF" stroke="#E2E9EE" stroke-width="1.5"/><rect x="848.7" y="235.0" width="20.0" height="20.0" rx="6.0" fill="#423E3D" opacity="0.16"/><text x="878.7" y="250.0" font-family="'Inter',sans-serif" font-size="16" font-weight="700" fill="#423E3D" text-anchor="start">Divisional rollup</text><rect x="848.7" y="278.0" width="260.0" height="9.0" rx="4.5" fill="#E3E1CC"/><rect x="848.7" y="300.0" width="190.0" height="9.0" rx="4.5" fill="#E3E1CC"/><rect x="848.7" y="350.0" width="120.0" height="9.0" rx="4.0" fill="#E3E1CC"/><rect x="150.0" y="390.0" width="668.7" height="118.0" rx="12.0" fill="#FFFFFF" stroke="#E2E9EE" stroke-width="1.5"/><rect x="166.0" y="405.0" width="20.0" height="20.0" rx="6.0" fill="#423E3D" opacity="0.16"/><text x="196.0" y="420.0" font-family="'Inter',sans-serif" font-size="16" font-weight="700" fill="#423E3D" text-anchor="start">Applications</text><rect x="166.0" y="448.0" width="260.0" height="9.0" rx="4.5" fill="#E3E1CC"/><rect x="166.0" y="470.0" width="190.0" height="9.0" rx="4.5" fill="#E3E1CC"/><rect x="166.0" y="482.0" width="120.0" height="9.0" rx="4.0" fill="#E3E1CC"/><rect x="832.7" y="390.0" width="327.3" height="118.0" rx="12.0" fill="#FFFFFF" stroke="#E2E9EE" stroke-width="1.5"/><rect x="848.7" y="405.0" width="20.0" height="20.0" rx="6.0" fill="#423E3D" opacity="0.16"/><text x="878.7" y="420.0" font-family="'Inter',sans-serif" font-size="16" font-weight="700" fill="#423E3D" text-anchor="start">Change status</text><rect x="848.7" y="448.0" width="260.0" height="9.0" rx="4.5" fill="#E3E1CC"/><rect x="848.7" y="470.0" width="190.0" height="9.0" rx="4.5" fill="#E3E1CC"/><rect x="848.7" y="482.0" width="120.0" height="9.0" rx="4.0" fill="#E3E1CC"/><rect x="150.0" y="522.0" width="1010.0" height="118.0" rx="12.0" fill="#FFFFFF" stroke="#E2E9EE" stroke-width="1.5"/><rect x="166.0" y="537.0" width="20.0" height="20.0" rx="6.0" fill="#423E3D" opacity="0.16"/><text x="196.0" y="552.0" font-family="'Inter',sans-serif" font-size="16" font-weight="700" fill="#423E3D" text-anchor="start">Cloud cost</text><rect x="166.0" y="580.0" width="260.0" height="9.0" rx="4.5" fill="#E3E1CC"/><rect x="166.0" y="602.0" width="190.0" height="9.0" rx="4.5" fill="#E3E1CC"/><rect x="166.0" y="614.0" width="120.0" height="9.0" rx="4.0" fill="#E3E1CC"/></g></svg>
