<svg width="1200" height="700" viewBox="0 0 1200 700" fill="none" xmlns="http://www.w3.org/2000/svg"><style>.lv{opacity:0;animation:lv 12s infinite}@keyframes lv{0%,2%{opacity:0}6%,28%{opacity:1}32%,100%{opacity:0}}.l1{animation-delay:4s}.l2{animation-delay:8s}@media (prefers-reduced-motion:reduce){*{animation:none!important}}</style><rect x="0.0" y="0.0" width="1200.0" height="700.0" rx="16.0" fill="#FFFFFF"/><rect x="0.0" y="0.0" width="1200.0" height="52.0" rx="16.0" fill="#F7F5EA"/><rect x="0.0" y="36.0" width="1200.0" height="16.0" rx="0.0" fill="#F7F5EA"/><line x1="0" y1="52" x2="1200" y2="52" stroke="#E3E1CC" stroke-width="1.5"/><circle cx="28" cy="26" r="6.5" fill="#E6685C"/><circle cx="50" cy="26" r="6.5" fill="#E8B84B"/><circle cx="72" cy="26" r="6.5" fill="#7DC26B"/><rect x="108.0" y="13.0" width="430.0" height="26.0" rx="13.0" fill="#FFFFFF" stroke="#E3E1CC" stroke-width="1"/><text x="126.0" y="31.0" font-family="'JetBrains Mono',monospace" font-size="13" font-weight="400" fill="#878676" text-anchor="start">resource dashboard</text><rect x="1104.0" y="13.0" width="62.0" height="26.0" rx="13.0" fill="#1F597B" opacity="0.16"/><rect x="0.0" y="52.0" width="196.0" height="648.0" rx="0.0" fill="#123A57"/><circle cx="30" cy="86" r="11" fill="#5AA9D6"/><rect x="50.0" y="81.0" width="74.0" height="10.0" rx="5.0" fill="#3E6B8C"/><rect x="26.0" y="131.0" width="13.0" height="13.0" rx="3.0" fill="#3E6B8C"/><rect x="50.0" y="133.0" width="62.0" height="10.0" rx="5.0" fill="#2C4E68"/><rect x="26.0" y="171.0" width="13.0" height="13.0" rx="3.0" fill="#3E6B8C"/><rect x="50.0" y="173.0" width="75.0" height="10.0" rx="5.0" fill="#2C4E68"/><rect x="12.0" y="202.0" width="172.0" height="32.0" rx="8.0" fill="#5AA9D6" opacity="0.30"/><rect x="26.0" y="211.0" width="13.0" height="13.0" rx="3.0" fill="#5AA9D6"/><rect x="50.0" y="213.0" width="88.0" height="10.0" rx="5.0" fill="#5AA9D6"/><rect x="26.0" y="251.0" width="13.0" height="13.0" rx="3.0" fill="#3E6B8C"/><rect x="50.0" y="253.0" width="101.0" height="10.0" rx="5.0" fill="#2C4E68"/><rect x="26.0" y="291.0" width="13.0" height="13.0" rx="3.0" fill="#3E6B8C"/><rect x="50.0" y="293.0" width="68.0" height="10.0" rx="5.0" fill="#2C4E68"/><rect x="26.0" y="331.0" width="13.0" height="13.0" rx="3.0" fill="#3E6B8C"/><rect x="50.0" y="333.0" width="81.0" height="10.0" rx="5.0" fill="#2C4E68"/><text x="236.0" y="104.0" font-family="'Fraunces',serif" font-size="26" font-weight="600" fill="#423E3D" text-anchor="start">Resources</text><rect x="236.0" y="130.0" width="226.0" height="40.0" rx="8.0" fill="#FFFFFF" stroke="#E3E1CC" stroke-width="1.5"/><rect x="252.0" y="145.0" width="90.0" height="10.0" rx="5.0" fill="#878676"/><rect x="486.0" y="130.0" width="226.0" height="40.0" rx="8.0" fill="#FFFFFF" stroke="#E3E1CC" stroke-width="1.5"/><rect x="502.0" y="145.0" width="90.0" height="10.0" rx="5.0" fill="#878676"/><rect x="736.0" y="130.0" width="226.0" height="40.0" rx="8.0" fill="#FFFFFF" stroke="#E3E1CC" stroke-width="1.5"/><rect x="752.0" y="145.0" width="90.0" height="10.0" rx="5.0" fill="#878676"/><rect x="1050.0" y="130.0" width="110.0" height="40.0" rx="8.0" fill="#1F597B"/><rect x="1078.0" y="145.0" width="54.0" height="10.0" rx="5.0" fill="#FFFFFF"/><g class="lv l0"><text x="236.0" y="214.0" font-family="'JetBrains Mono',monospace" font-size="13" font-weight="500" fill="#878676" text-anchor="start">environments</text><rect x="236.0" y="228.0" width="92.0" height="22.0" rx="11.0" fill="#1F597B" opacity="0.16"/><rect x="236.0" y="274.0" width="190.0" height="150.0" rx="12.0" fill="#FFFFFF" stroke="#E3E1CC" stroke-width="2"/><path d="M 305 330 l 26 -15 l 26 15 l -26 15 Z" fill="#2E6B8E"/><path d="M 305 348 l 26 -15 l 26 15 l -26 15 Z" fill="#2E6B8E" opacity=".55"/><text x="331.0" y="396.0" font-family="'Inter',sans-serif" font-size="14" font-weight="700" fill="#423E3D" text-anchor="middle">prod</text><circle cx="402" cy="292" r="15" fill="#1F597B"/><text x="402.0" y="297.0" font-family="'Inter',sans-serif" font-size="13" font-weight="700" fill="#FFFFFF" text-anchor="middle">6</text><rect x="452.0" y="274.0" width="190.0" height="150.0" rx="12.0" fill="#FFFFFF" stroke="#E3E1CC" stroke-width="2"/><path d="M 521 330 l 26 -15 l 26 15 l -26 15 Z" fill="#2E6B8E"/><path d="M 521 348 l 26 -15 l 26 15 l -26 15 Z" fill="#2E6B8E" opacity=".55"/><text x="547.0" y="396.0" font-family="'Inter',sans-serif" font-size="14" font-weight="700" fill="#423E3D" text-anchor="middle">staging</text><circle cx="618" cy="292" r="15" fill="#1F597B"/><text x="618.0" y="297.0" font-family="'Inter',sans-serif" font-size="13" font-weight="700" fill="#FFFFFF" text-anchor="middle">2</text></g><g class="lv l1"><text x="236.0" y="214.0" font-family="'JetBrains Mono',monospace" font-size="13" font-weight="500" fill="#878676" text-anchor="start">regions</text><rect x="236.0" y="228.0" width="92.0" height="22.0" rx="11.0" fill="#1F597B" opacity="0.16"/><rect x="344.0" y="228.0" width="92.0" height="22.0" rx="11.0" fill="#1F597B" opacity="0.16"/><rect x="236.0" y="274.0" width="190.0" height="150.0" rx="12.0" fill="#FFFFFF" stroke="#E3E1CC" stroke-width="2"/><path d="M 305 330 l 26 -15 l 26 15 l -26 15 Z" fill="#2E6B8E"/><path d="M 305 348 l 26 -15 l 26 15 l -26 15 Z" fill="#2E6B8E" opacity=".55"/><text x="331.0" y="396.0" font-family="'Inter',sans-serif" font-size="14" font-weight="700" fill="#423E3D" text-anchor="middle">us-east-1</text><circle cx="402" cy="292" r="15" fill="#1F597B"/><text x="402.0" y="297.0" font-family="'Inter',sans-serif" font-size="13" font-weight="700" fill="#FFFFFF" text-anchor="middle">4</text><rect x="452.0" y="274.0" width="190.0" height="150.0" rx="12.0" fill="#FFFFFF" stroke="#E3E1CC" stroke-width="2"/><path d="M 521 330 l 26 -15 l 26 15 l -26 15 Z" fill="#2E6B8E"/><path d="M 521 348 l 26 -15 l 26 15 l -26 15 Z" fill="#2E6B8E" opacity=".55"/><text x="547.0" y="396.0" font-family="'Inter',sans-serif" font-size="14" font-weight="700" fill="#423E3D" text-anchor="middle">us-west-2</text><circle cx="618" cy="292" r="15" fill="#1F597B"/><text x="618.0" y="297.0" font-family="'Inter',sans-serif" font-size="13" font-weight="700" fill="#FFFFFF" text-anchor="middle">2</text></g><g class="lv l2"><text x="236.0" y="214.0" font-family="'JetBrains Mono',monospace" font-size="13" font-weight="500" fill="#878676" text-anchor="start">resources</text><rect x="236.0" y="228.0" width="92.0" height="22.0" rx="11.0" fill="#1F597B" opacity="0.16"/><rect x="344.0" y="228.0" width="92.0" height="22.0" rx="11.0" fill="#1F597B" opacity="0.16"/><rect x="452.0" y="228.0" width="92.0" height="22.0" rx="11.0" fill="#1F597B" opacity="0.16"/><rect x="236.0" y="274.0" width="190.0" height="150.0" rx="12.0" fill="#FFFFFF" stroke="#E3E1CC" stroke-width="2"/><path d="M 305 330 l 26 -15 l 26 15 l -26 15 Z" fill="#2E6B8E"/><path d="M 305 348 l 26 -15 l 26 15 l -26 15 Z" fill="#2E6B8E" opacity=".55"/><text x="331.0" y="396.0" font-family="'Inter',sans-serif" font-size="14" font-weight="700" fill="#423E3D" text-anchor="middle">ec2</text><circle cx="402" cy="292" r="15" fill="#1F597B"/><text x="402.0" y="297.0" font-family="'Inter',sans-serif" font-size="13" font-weight="700" fill="#FFFFFF" text-anchor="middle">3</text><rect x="452.0" y="274.0" width="190.0" height="150.0" rx="12.0" fill="#FFFFFF" stroke="#E3E1CC" stroke-width="2"/><path d="M 521 330 l 26 -15 l 26 15 l -26 15 Z" fill="#2E6B8E"/><path d="M 521 348 l 26 -15 l 26 15 l -26 15 Z" fill="#2E6B8E" opacity=".55"/><text x="547.0" y="396.0" font-family="'Inter',sans-serif" font-size="14" font-weight="700" fill="#423E3D" text-anchor="middle">rds</text><circle cx="618" cy="292" r="15" fill="#1F597B"/><text x="618.0" y="297.0" font-family="'Inter',sans-serif" font-size="13" font-weight="700" fill="#FFFFFF" text-anchor="middle">1</text><rect x="668.0" y="274.0" width="190.0" height="150.0" rx="12.0" fill="#FFFFFF" stroke="#E3E1CC" stroke-width="2"/><path d="M 737 330 l 26 -15 l 26 15 l -26 15 Z" fill="#2E6B8E"/><path d="M 737 348 l 26 -15 l 26 15 l -26 15 Z" fill="#2E6B8E" opacity=".55"/><text x="763.0" y="396.0" font-family="'Inter',sans-serif" font-size="14" font-weight="700" fill="#423E3D" text-anchor="middle">s3</text><circle cx="834" cy="292" r="15" fill="#1F597B"/><text x="834.0" y="297.0" font-family="'Inter',sans-serif" font-size="13" font-weight="700" fill="#FFFFFF" text-anchor="middle">2</text></g><line x1="236" y1="600" x2="1160" y2="600" stroke="#E3E1CC" stroke-width="1.5"/><rect x="236.0" y="626.0" width="120.0" height="11.0" rx="5.5" fill="#878676"/><rect x="1010.0" y="616.0" width="150.0" height="40.0" rx="8.0" fill="#1F597B"/><rect x="1044.0" y="631.0" width="82.0" height="10.0" rx="5.0" fill="#FFFFFF"/></svg>
